<svg xmlns="http://www.w3.org/2000/svg" viewBox="0 0 64 64">
  <rect width="64" height="64" rx="8" fill="#757b82" />
  <path d="M6 64h58V46L43 39 30 49 19 42z" fill="#1f1e24" />
  <ellipse cx="35" cy="25" rx="14" ry="16" fill="#6f4333" />
  <path d="M20 22c1-11 8-18 18-18 7 0 12 3 15 8l-6 2-2 7-7-4-7 1-4 8z" fill="#201418" />
  <path d="M21 17c3-5 9-9 17-9 6 0 10 2 13 6l-5 2-2 4c-3-2-6-3-10-3-5 0-9 0-13 0z" fill="#111" opacity=".8" />
  <circle cx="30" cy="25" r="2.8" fill="#fff" />
  <circle cx="41" cy="24" r="2.8" fill="#fff" />
  <circle cx="31" cy="25" r="1.2" fill="#1f130f" />
  <circle cx="42" cy="24" r="1.2" fill="#1f130f" />
  <path d="M31 34c3 2 8 2 11-1" fill="none" stroke="#2f1612" stroke-linecap="round" stroke-width="2.5" />
  <path d="M17 18c1 9 4 16 10 20l5-3c-4-3-7-9-7-15z" fill="#81513f" />
  <path d="M15 15c3 0 5 1 6 3l1 6-4 1-2-5-4 2-3-3z" fill="#6f4333" />
  <path d="M8 23c2-4 6-7 10-7l3 3-7 4z" fill="#5b372a" />
  <path d="M24 21c-3 0-6 1-8 4" fill="none" stroke="#2f1612" stroke-linecap="round" stroke-width="2" />
</svg>
