<svg
  xmlns="http://www.w3.org/2000/svg"
  viewBox="0 0 2048 833"
  role="img"
  aria-labelledby="logoTitle logoDesc"
>
  <title id="logoTitle">Retard Stocks</title>
  <desc id="logoDesc">
    Retard Stocks logo with a turquoise and purple rising price line, red
    arrow, stars, and stylized RETARD STOCKS lettering.
  </desc>

  <defs>
    <g id="starShape">
      <path d="M0 -42 L12 -13 L42 -13 L18 6 L27 36 L0 18 L-27 36 L-18 6 L-42 -13 L-12 -13 Z" />
    </g>
  </defs>

  <path
    d="M103 597 L306 514 L513 541 L756 401 L966 439 L1149 307 L1443 341 L1572 215"
    fill="none"
    stroke="#7022b6"
    stroke-linecap="round"
    stroke-linejoin="round"
    stroke-width="22"
  />
  <path
    d="M98 584 L301 501 L508 528 L751 388 L961 426 L1144 294 L1438 328 L1567 202"
    fill="none"
    stroke="#14c7c4"
    stroke-linecap="round"
    stroke-linejoin="round"
    stroke-width="22"
  />
  <path
    d="M1612 221 L1701 156 L1744 191 L1849 104"
    fill="none"
    stroke="#ff4548"
    stroke-linecap="round"
    stroke-linejoin="round"
    stroke-width="18"
  />
  <path
    d="M1833 84 L1849 104 L1819 105"
    fill="none"
    stroke="#ff4548"
    stroke-linecap="round"
    stroke-linejoin="round"
    stroke-width="18"
  />

  <use href="#starShape" x="205" y="205" fill="#ff4548" />
  <use href="#starShape" x="1787" y="244" fill="#14c7c4" />
  <path
    d="M290 729 L296 744 L312 744 L299 754 L304 769 L290 760 L276 769 L281 754 L268 744 L284 744 Z"
    fill="#7022b6"
  />

  <g font-family="Arial Black, Impact, sans-serif" font-weight="900" font-style="italic">
    <text
      x="503"
      y="430"
      fill="none"
      stroke="#272547"
      stroke-width="32"
      paint-order="stroke"
      letter-spacing="4"
      font-size="268"
    >
      RETARD
    </text>
    <text
      x="503"
      y="430"
      fill="none"
      stroke="#f6f8ff"
      stroke-width="19"
      paint-order="stroke"
      letter-spacing="4"
      font-size="268"
    >
      RETARD
    </text>
    <text
      x="503"
      y="430"
      fill="#13a8a5"
      letter-spacing="4"
      font-size="268"
    >
      RETARD
    </text>

    <text
      x="670"
      y="604"
      fill="none"
      stroke="#2d2152"
      stroke-width="24"
      paint-order="stroke"
      letter-spacing="9"
      font-size="188"
    >
      STOCKS
    </text>
    <text
      x="670"
      y="604"
      fill="none"
      stroke="#f6f8ff"
      stroke-width="13"
      paint-order="stroke"
      letter-spacing="9"
      font-size="188"
    >
      STOCKS
    </text>
    <text
      x="670"
      y="604"
      fill="#6d2cc0"
      letter-spacing="9"
      font-size="188"
    >
      STOCKS
    </text>
  </g>

  <path d="M136 790 H1918" fill="none" stroke="#14c7c4" stroke-width="12" />
  <path d="M136 808 H1918" fill="none" stroke="#7022b6" stroke-width="8" />
  <path d="M136 822 H1918" fill="none" stroke="#ff4a6c" stroke-width="6" />
</svg>
