<svg
  xmlns="http://www.w3.org/2000/svg"
  viewBox="0 0 792 251"
  role="img"
  aria-labelledby="logoTitle logoDesc"
>
  <title id="logoTitle">Retard Stocks</title>
  <desc id="logoDesc">
    Retard Stocks logo with a rising chart line, floating dollar signs, and a rocket.
  </desc>
  <defs>
    <linearGradient id="warmGradient" x1="0%" y1="0%" x2="100%" y2="0%">
      <stop offset="0%" stop-color="#ff8f24" />
      <stop offset="55%" stop-color="#ffcf40" />
      <stop offset="100%" stop-color="#c7df49" />
    </linearGradient>
    <linearGradient id="lineGradient" x1="0%" y1="100%" x2="100%" y2="0%">
      <stop offset="0%" stop-color="#00d0d6" />
      <stop offset="55%" stop-color="#73e08d" />
      <stop offset="100%" stop-color="#ffd84a" />
    </linearGradient>
  </defs>

  <g fill="none" stroke-linecap="round" stroke-linejoin="round">
    <path
      d="M34 206 L98 158 L188 172 L278 92 L347 103 L416 42"
      stroke="#19d6cc"
      stroke-width="7"
    />
    <path
      d="M50 214 C90 194 130 216 173 204"
      stroke="#ff7a2f"
      stroke-width="5"
    />
    <path
      d="M276 122 L364 62 L458 78 L560 0"
      stroke="url(#lineGradient)"
      stroke-width="7"
    />
  </g>

  <g font-family="Arial, Helvetica, sans-serif" text-anchor="middle">
    <text x="315" y="117" fill="#151633" font-size="88" font-weight="800">
      RETARD
    </text>
    <text
      x="328"
      y="181"
      fill="url(#warmGradient)"
      font-size="55"
      font-weight="700"
      letter-spacing="12"
    >
      STOCKS
    </text>
  </g>

  <g font-family="Arial, Helvetica, sans-serif" font-weight="700">
    <text x="18" y="82" fill="#14d1bb" font-size="32">$</text>
    <text x="663" y="98" fill="#ffd647" font-size="32">$</text>
    <text x="617" y="177" fill="#ff7d2f" font-size="46">$</text>
    <text x="703" y="150" fill="#14d1bb" font-size="28">$</text>
  </g>

  <g transform="translate(560 22) rotate(36 0 0)">
    <ellipse cx="0" cy="0" rx="18" ry="31" fill="#232a72" />
    <circle cx="0" cy="-6" r="6" fill="#4a8cff" />
    <path d="M-18 13 L-33 29 L-11 22 Z" fill="#ff8b34" />
    <path d="M18 13 L33 29 L11 22 Z" fill="#ff8b34" />
    <path d="M0 31 L-10 48 L10 48 Z" fill="#ffcf40" />
  </g>
</svg>
