<svg xmlns="http://www.w3.org/2000/svg" width="1200" height="630" viewBox="0 0 1200 630" role="img" aria-labelledby="title desc">
  <title id="title">Retard Stocks social preview</title>
  <desc id="desc">Retard Stocks logo on a calm editorial background for link previews.</desc>

  <defs>
    <linearGradient id="cardGlow" x1="0%" y1="0%" x2="100%" y2="100%">
      <stop offset="0%" stop-color="#fffdf9" />
      <stop offset="100%" stop-color="#f2ede4" />
    </linearGradient>
    <filter id="shadow" x="-20%" y="-20%" width="140%" height="140%">
      <feDropShadow dx="0" dy="10" stdDeviation="20" flood-color="#161513" flood-opacity="0.08" />
    </filter>
  </defs>

  <rect width="1200" height="630" fill="#f8f6f1" />
  <rect x="44" y="44" width="1112" height="542" rx="26" fill="url(#cardGlow)" stroke="#d8d1c7" />
  <rect x="112" y="106" width="976" height="418" rx="22" fill="#fffdf9" stroke="#e2dbd0" filter="url(#shadow)" />

  <g opacity="0.85">
    <path d="M146 422 L262 338 L344 350 L468 256 L578 276 L702 172" fill="none" stroke="#19d6cc" stroke-width="8" stroke-linecap="round" stroke-linejoin="round" />
    <path d="M170 448 C236 421 286 447 360 429" fill="none" stroke="#ff7a2f" stroke-width="6" stroke-linecap="round" />
    <path d="M470 286 L598 196 L706 214 L814 124" fill="none" stroke="#d6de58" stroke-width="8" stroke-linecap="round" stroke-linejoin="round" />
  </g>

  <g font-family="Arial, Helvetica, sans-serif" text-anchor="middle">
    <text x="600" y="283" fill="#151633" font-size="132" font-weight="800">RETARD</text>
    <text x="605" y="374" fill="#ffb432" font-size="78" font-weight="700" letter-spacing="18">STOCKS</text>
  </g>

  <g font-family="Arial, Helvetica, sans-serif" font-weight="700">
    <text x="136" y="196" fill="#14d1bb" font-size="40">$</text>
    <text x="987" y="213" fill="#ffd647" font-size="40">$</text>
    <text x="940" y="392" fill="#ff7d2f" font-size="58">$</text>
    <text x="1028" y="348" fill="#14d1bb" font-size="32">$</text>
  </g>

  <g transform="translate(824 134) rotate(36 0 0)">
    <ellipse cx="0" cy="0" rx="28" ry="44" fill="#232a72" />
    <circle cx="0" cy="-9" r="8" fill="#4a8cff" />
    <path d="M-28 18 L-50 40 L-18 31 Z" fill="#ff8b34" />
    <path d="M28 18 L50 40 L18 31 Z" fill="#ff8b34" />
    <path d="M0 44 L-15 68 L15 68 Z" fill="#ffcf40" />
  </g>

  <text x="600" y="468" fill="#635f58" font-family="Arial, Helvetica, sans-serif" font-size="30" text-anchor="middle">
    Public stock ideas, investment memos, and sleep-deprived special situations.
  </text>
</svg>
